<svg id="Capa_1" enable-background="new 0 0 511.763 511.763" height="512" viewBox="0 0 511.763 511.763" width="512" xmlns="http://www.w3.org/2000/svg"><g id="XMLID_558_"><path id="XMLID_469_" d="m255.882 11.145-218.83 66.935v423.683h437.659v-423.683z" fill="#575f64"/><path id="XMLID_3333_" d="m255.882 11.145v490.618h218.829v-423.683z" fill="#32393f"/><path id="XMLID_178_" d="m364.717 256.951c-4.207-15.285-18.218-25.961-34.071-25.961h-149.529c-15.854 0-29.864 10.676-34.071 25.961l-25.728 93.479h269.127z" fill="#a8d3d8"/><path id="XMLID_5_" d="m255.882 350.431h134.563l-25.728-93.479c-4.207-15.285-18.218-25.961-34.071-25.961h-74.764z" fill="#7da1b3"/><path id="XMLID_3297_" d="m255.882 350.431h134.563l-25.728-93.479c-4.207-15.285-18.218-25.961-34.071-25.961h-74.764z" fill="#7da1b3"/><path id="XMLID_791_" d="m367.911 335.431h-30c0-12.542-10.204-22.745-22.746-22.745s-22.746 10.203-22.746 22.745h-30c0-29.084 23.662-52.745 52.746-52.745s52.746 23.661 52.746 52.745z" fill="#537983"/><path id="XMLID_183_" d="m117.799 416.436h75.01v80.327h-75.01z" fill="#7c8388"/><path id="XMLID_3653_" d="m319.975 416.436h73.99v80.327h-73.99z" fill="#575f64"/><path id="XMLID_6_" d="m365.914 320.431h-220.065c-23.159 0-42 18.841-42 42v84.005h304.064v-84.005c.001-23.159-18.84-42-41.999-42z" fill="#f53"/><path id="XMLID_259_" d="m365.914 320.431h-110.032v126.005h152.032v-84.005c0-23.159-18.841-42-42-42z" fill="#e62e2e"/><path id="XMLID_7_" d="m365.914 320.431h-110.032v126.005h152.032v-84.005c0-23.159-18.841-42-42-42z" fill="#e62e2e"/><path id="XMLID_8_" d="m179.827 395.561c7.846 0 15.363-6.899 15-15-.364-8.127-6.591-15-15-15-7.846 0-15.363 6.899-15 15 .364 8.127 6.591 15 15 15z" fill="#f93"/><path id="XMLID_9_" d="m331.936 395.561c7.846 0 15.363-6.899 15-15-.364-8.127-6.591-15-15-15-7.846 0-15.363 6.899-15 15 .364 8.127 6.591 15 15 15z" fill="#f73"/><path id="XMLID_10_" d="m228.803 365.561h54.156v30h-54.156z" fill="#7c8388"/><path id="XMLID_11_" d="m255.882 365.561h27.078v30h-27.078z" fill="#575f64"/><path id="XMLID_3290_" d="m255.882 365.561h27.078v30h-27.078z" fill="#575f64"/><path id="XMLID_12_" d="m22.052 73.936 233.83-73.936 233.829 73.936-233.829 11z" fill="#f93"/><path id="XMLID_166_" d="m489.711 73.936-233.829-73.936v73.936z" fill="#f73"/><path id="XMLID_144_" d="m118.638 88.936h266.987v87.582h-266.987z" fill="#ffc34d"/><g fill="#f93"><path id="XMLID_207_" d="m255.882 88.936h129.743v87.582h-129.743z"/><path id="XMLID_157_" d="m122.228 117.726h106.496v30.001h-106.496z" transform="matrix(.569 -.822 .822 .569 -33.511 201.522)"/><path id="XMLID_153_" d="m204.383 117.726h106.496v30.001h-106.496z" transform="matrix(.569 -.822 .822 .569 1.904 269.085)"/></g><path id="XMLID_437_" d="m255.882 161.623 44.38-64.153-24.672-17.069-19.708 28.489z" fill="#f73"/><path id="XMLID_147_" d="m285.54 117.727h106.495v30h-106.495z" fill="#f73" transform="matrix(.569 -.822 .822 .569 36.893 335.834)"/><path id="XMLID_172_" d="m400.625 191.518h-296.987v-117.582h296.986v117.582zm-266.987-30h236.986v-57.582h-236.986z" fill="#f53"/><path id="XMLID_242_" d="m255.882 73.936v30h114.743v57.582h-114.743v30h144.743v-117.582z" fill="#e62e2e"/><path id="XMLID_33_" d="m52.052 511.763v-430.879h-30v400.879z" fill="#f93"/><path id="XMLID_3591_" d="m459.711 511.763 30-30v-400.879h-30z" fill="#f73"/><path id="XMLID_179_" d="m22.052 73.936h467.659v30h-467.659z" fill="#7c8388"/><path id="XMLID_3226_" d="m22.052 481.763h467.659v30h-467.659z" fill="#f53"/><path id="XMLID_236_" d="m255.882 481.763h233.829v30h-233.829z" fill="#e62e2e"/><path id="XMLID_192_" d="m255.881 73.936h233.829v30h-233.829z" fill="#575f64"/></g></svg>